0
SECTION
2
HEADER
9
$ACADVER
1
AC1009
9
$EXTMIN
10
0.0
20
-15.0
30
0.0
9
$EXTMAX
10
120.0
20
80.0
30
0.0
0
ENDSEC
0
SECTION
2
TABLES
0
TABLE
2
LAYER
70
2.0
0
LAYER
2
GEOMETRY
70
0.0
62
7.0
6
CONTINUOUS
0
LAYER
2
DIMENSIONS
70
0.0
62
7.0
6
CONTINUOUS
0
ENDTAB
0
ENDSEC
0
SECTION
2
ENTITIES
0
POLYLINE
8
GEOMETRY
66
1.0
70
1.0
0
VERTEX
8
GEOMETRY
10
0.0
20
0.0
30
0.0
0
VERTEX
8
GEOMETRY
10
120.0
20
0.0
30
0.0
0
VERTEX
8
GEOMETRY
10
120.0
20
80.0
30
0.0
0
VERTEX
8
GEOMETRY
10
0.0
20
80.0
30
0.0
0
SEQEND
0
CIRCLE
8
GEOMETRY
10
15.0
20
15.0
30
0.0
40
4.0
0
CIRCLE
8
GEOMETRY
10
105.0
20
15.0
30
0.0
40
4.0
0
LINE
8
DIMENSIONS
10
0.0
20
0.0
30
0.0
11
0.0
21
-15.0
31
0.0
0
LINE
8
DIMENSIONS
10
120.0
20
0.0
30
0.0
11
120.0
21
-15.0
31
0.0
0
LINE
8
DIMENSIONS
10
0.0
20
-15.0
30
0.0
11
120.0
21
-15.0
31
0.0
0
TEXT
8
DIMENSIONS
10
60.0
20
-15.0
30
0.0
40
2.5
1
120
0
LINE
8
DIMENSIONS
10
0.0
20
0.0
30
0.0
11
15.0
21
0.0
31
0.0
0
LINE
8
DIMENSIONS
10
0.0
20
80.0
30
0.0
11
15.0
21
80.0
31
0.0
0
LINE
8
DIMENSIONS
10
15.0
20
0.0
30
0.0
11
15.0
21
80.0
31
0.0
0
TEXT
8
DIMENSIONS
10
15.0
20
40.0
30
0.0
40
2.5
1
80
0
LINE
8
DIMENSIONS
10
17.828427
20
17.828427
30
0.0
11
24.899495
21
24.899495
31
0.0
0
TEXT
8
DIMENSIONS
10
24.899495
20
24.899495
30
0.0
40
2.5
1
%%c8
0
ENDSEC
0
EOF
